<svg viewBox="0 0 246 24" fill="none" xmlns="http://www.w3.org/2000/svg" role="img" aria-label="PharmEasy Fever Watch">
  <!-- Official PharmEasy wordmark + mark (white) -->
  <path d="M33.0116 3.34359C35.5407 3.34359 37.2741 5.07787 37.2741 7.69355C37.2741 10.2807 35.4742 12.0172 32.8807 12.0172H30.4524V15.9221H27.876V3.34359H33.0116ZM30.4524 9.88169H32.3208C33.7967 9.88169 34.6591 9.11211 34.6591 7.70013C34.6591 6.27061 33.8139 5.50322 32.3315 5.50322H30.4545V9.88169H30.4524Z" fill="white"/>
  <path d="M38.7866 2.6376H41.2236V7.8865H41.3802C41.8135 6.78585 42.8367 6.1259 44.2182 6.1259C46.239 6.1259 47.4425 7.42168 47.4425 9.7326V15.9199H44.9605V10.3333C44.9605 9.0003 44.3534 8.30965 43.2293 8.30965C41.983 8.30965 41.2665 9.15597 41.2665 10.4057V15.9221H38.7866V2.6376V2.6376Z" fill="white"/>
  <path d="M48.9995 13.1771C48.9995 11.4362 50.3038 10.4232 52.642 10.2851L54.9202 10.147V9.35988C54.9202 8.55961 54.3582 8.10575 53.3328 8.10575C52.4404 8.10575 51.8419 8.42148 51.636 8.99373H49.3492C49.5101 7.21778 51.1061 6.10179 53.4679 6.10179C55.9585 6.10179 57.3679 7.30329 57.3679 9.35988V15.9265H54.961V14.668H54.8065C54.3217 15.5516 53.2985 16.0756 52.08 16.0756C50.2673 16.0712 48.9995 14.9376 48.9995 13.1771ZM54.9181 12.436V11.7278L53.0153 11.8528C51.9492 11.9295 51.4279 12.322 51.4279 13.0104C51.4279 13.7274 52.0328 14.1637 52.893 14.1637C54.045 14.1637 54.9181 13.4117 54.9181 12.436Z" fill="white"/>
  <path d="M59.4575 6.30569H61.8644V7.84046H62.0189C62.2656 6.88233 63.2352 6.15002 64.4301 6.15002C64.7712 6.15002 65.1895 6.19387 65.404 6.27061V8.58372C65.2045 8.50479 64.6274 8.42367 64.2263 8.42367C62.8727 8.42367 61.9416 9.24367 61.9416 10.5965V15.9221H59.4575V6.30569V6.30569Z" fill="white"/>
  <path d="M66.8286 6.30569H69.2377V7.87334H69.39C69.7761 6.77708 70.7543 6.0974 71.9921 6.0974C73.3135 6.0974 74.2167 6.75954 74.5921 7.87334H74.7487C75.1841 6.8012 76.2653 6.0974 77.5782 6.0974C79.4552 6.0974 80.6222 7.34275 80.6222 9.3226V15.9221H78.1424V9.9957C78.1424 8.8534 77.6232 8.28553 76.5742 8.28553C75.5681 8.28553 74.9203 9.01783 74.9203 10.0395V15.9221H72.5327V9.89046C72.5327 8.86874 71.9492 8.28334 70.9796 8.28334C70.0056 8.28334 69.3149 9.06168 69.3149 10.1338V15.9221H66.8329V6.30569H66.8286Z" fill="white"/>
  <path d="M91.0819 15.9221H82.9302V3.34359H91.0819V5.59092H85.5044V8.53109H90.7666V10.614H85.5044V13.6726H91.0819V15.9221Z" fill="white"/>
  <path d="M92.3457 13.1771C92.3457 11.4362 93.6543 10.4232 95.9882 10.2851L98.2686 10.147V9.35988C98.2686 8.55961 97.7023 8.10575 96.679 8.10575C95.7845 8.10575 95.1881 8.42148 94.9843 8.99373H92.6975C92.8584 7.21778 94.4544 6.10179 96.8163 6.10179C99.3069 6.10179 100.718 7.30329 100.718 9.35988V15.9265H98.3093V14.668H98.1592C97.6701 15.5516 96.649 16.0756 95.4262 16.0756C93.6199 16.0712 92.3457 14.9376 92.3457 13.1771ZM98.2686 12.436V11.7278L96.3615 11.8528C95.2953 11.9295 94.7762 12.322 94.7762 13.0104C94.7762 13.7274 95.3833 14.1637 96.2435 14.1637C97.3955 14.1637 98.2686 13.4117 98.2686 12.436Z" fill="white"/>
  <path d="M106.161 6.0974C108.546 6.0974 109.955 7.11692 110.091 8.95644H107.795C107.669 8.33596 107.096 7.95008 106.176 7.95008C105.29 7.95008 104.631 8.36227 104.631 8.97179C104.631 9.44099 105.032 9.7326 105.901 9.93212L107.669 10.3268C109.494 10.7368 110.311 11.5173 110.311 12.9578C110.311 14.8741 108.634 16.1326 106.167 16.1326C103.685 16.1326 102.183 15.0933 102.012 13.2472H104.434C104.625 13.8984 105.23 14.2733 106.221 14.2733C107.184 14.2733 107.849 13.8655 107.849 13.2472C107.849 12.7736 107.491 12.4864 106.665 12.3044L104.959 11.912C103.134 11.4998 102.246 10.6118 102.246 9.12965C102.243 7.30986 103.812 6.0974 106.161 6.0974Z" fill="white"/>
  <path d="M111.614 19.3928V17.3538C111.697 17.3691 112.073 17.3691 112.178 17.3691C113.107 17.3691 113.637 17.0644 113.84 16.3299L113.924 15.9835L110.623 6.30788H113.362L115.342 13.5936H115.492L117.472 6.30788H120.1L116.859 16.0712C116.056 18.5465 114.904 19.417 112.56 19.417C112.465 19.417 111.714 19.4104 111.614 19.3928Z" fill="white"/>
  <path d="M10.5709 12.2518C9.39961 13.3897 8.25193 14.5452 7.1064 15.705C6.77389 16.0427 6.64733 16.4746 6.74601 16.9548C6.98627 18.1321 8.35276 18.5619 9.24087 17.7353C9.95307 17.0666 10.6352 16.3716 11.3196 15.6656C11.5341 15.4507 11.6628 15.4003 11.903 15.648C12.9563 16.7289 14.0268 17.7945 15.1101 18.8338C15.3504 19.0705 15.3225 19.2021 15.0908 19.4192C14.3915 20.0945 13.6964 20.7917 13.0121 21.4867C12.5616 21.9493 12.4694 22.5128 12.7096 23.0982C12.9542 23.6902 13.4326 23.9708 13.9388 23.9993C14.4472 24.0103 14.7969 23.8875 15.0672 23.6134C16.2278 22.469 17.3926 21.3288 18.5295 20.1624C19.0744 19.5946 19.0744 18.7702 18.521 18.2111C16.5345 16.2093 14.5481 14.2317 12.5445 12.2562C12.2591 11.9777 11.9073 11.8352 11.5577 11.8352C11.208 11.8352 10.8519 11.9799 10.5709 12.2518Z" fill="white"/>
  <path d="M14.5072 0C12.5979 0 10.6608 0.688451 9.09056 2.18375C7.7348 3.48172 6.42623 4.82574 5.09407 6.15221C3.84557 7.39537 2.60136 8.62757 1.35929 9.86853C0.925962 10.3027 0.78867 10.8289 0.992463 11.4208C1.19411 12.0128 1.63602 12.3242 2.23024 12.3987C2.75581 12.4667 3.18056 12.2408 3.54953 11.8637C5.98861 9.42565 8.43413 6.99852 10.8732 4.56483C12.0917 3.33044 13.5418 2.83274 15.2451 3.02129C17.8665 3.3129 19.8637 5.90007 19.5033 8.54206C19.336 9.72164 18.8362 10.6995 18.006 11.537C17.3796 12.1641 17.3045 13.0038 17.8687 13.5958C18.7268 14.5101 19.6256 15.4025 20.5373 16.2619C21.1208 16.8035 22.0411 16.7202 22.5817 16.1479C23.1265 15.545 23.1072 14.6987 22.5152 14.0782C22.1376 13.6923 21.7686 13.2889 21.3632 12.9315C21.0843 12.6859 21.0307 12.5149 21.2624 12.1685C22.1011 10.91 22.4894 9.48923 22.5087 7.96543C22.5087 7.31644 22.4251 6.68719 22.2856 6.06451C21.3267 2.2561 17.9566 0.00438514 14.5093 0.00438514H14.5072" fill="white"/>
  <!-- divider + Fever Watch -->
  <line x1="133" y1="3.5" x2="133" y2="20.5" stroke="white" stroke-width="1.5" opacity="0.5"/>
  <text x="144" y="17.2" font-family="Inter, 'Segoe UI', Arial, sans-serif" font-weight="600" font-size="16.5" letter-spacing="0.2" fill="white">Fever Watch</text>
</svg>
